<svg width="134" height="134" viewBox="0 0 134 134" fill="none" xmlns="http://www.w3.org/2000/svg">
<g clip-path="url(#clip0_9970_4951)">
<path d="M120.49 107.347C120.143 107.812 119.787 108.272 119.423 108.723C118.336 110.095 117.19 111.417 115.998 112.697C115.81 112.902 115.617 113.107 115.421 113.312C113.651 115.165 111.773 116.913 109.799 118.553C109.147 119.097 108.486 119.624 107.812 120.142C107.532 120.36 107.248 120.573 106.967 120.782C106.712 120.971 106.461 121.159 106.206 121.343C105.621 121.765 105.027 122.179 104.424 122.585C103.529 123.187 102.622 123.773 101.693 124.334C101.668 124.35 101.643 124.363 101.618 124.38C99.8486 125.45 98.0249 126.442 96.1511 127.345C96.1135 127.366 96.0716 127.383 96.034 127.4C95.2686 127.776 94.4948 128.127 93.7126 128.466C93.629 128.504 93.5411 128.541 93.4575 128.579C92.5833 128.956 91.6966 129.311 90.8015 129.65C89.5425 130.131 88.2626 130.574 86.9702 130.976C86.9116 130.993 86.853 131.009 86.7987 131.03C85.9119 131.302 85.021 131.557 84.1176 131.796C83.9126 131.85 83.7119 131.9 83.5069 131.95C83.44 131.967 83.3689 131.984 83.302 132.001C82.5114 132.197 81.7167 132.381 80.9137 132.549C79.9056 132.762 78.8893 132.954 77.8645 133.117C75.9405 133.435 73.983 133.67 71.9962 133.812C71.9042 133.824 71.808 133.829 71.716 133.833C71.6825 133.837 71.6491 133.841 71.6156 133.841C71.5821 133.845 71.5487 133.845 71.5152 133.849H71.4985C71.4232 133.858 71.3437 133.862 71.2684 133.866C70.7958 133.895 70.3232 133.925 69.8589 133.937C69.6958 133.95 69.5368 133.954 69.3737 133.958C68.0896 134.004 66.8139 134.013 65.5466 133.987C65.2161 133.983 64.8857 133.975 64.5553 133.962C64.3419 133.954 64.1286 133.946 63.9153 133.933C63.656 133.921 63.4008 133.908 63.1457 133.895C62.8362 133.879 62.5309 133.858 62.2213 133.837C61.916 133.816 61.6065 133.791 61.3011 133.762C61.0293 133.741 60.7532 133.716 60.4814 133.69C60.2262 133.665 59.9669 133.64 59.7117 133.611C59.6155 133.603 59.5152 133.59 59.419 133.578C58.6661 133.498 57.9174 133.402 57.1687 133.289C56.696 133.222 56.2276 133.147 55.7591 133.067C55.5333 133.03 55.3116 132.992 55.0857 132.95C54.5754 132.858 54.0651 132.762 53.559 132.653C53.2579 132.595 52.9567 132.532 52.6556 132.461H52.6514C51.5597 132.222 50.4764 131.959 49.4057 131.666C45.9466 130.725 42.5963 129.516 39.3714 128.052C38.8193 127.801 38.2756 127.542 37.7318 127.278C37.3972 127.119 37.0668 126.952 36.7364 126.785C36.544 126.688 36.3516 126.588 36.1592 126.488C35.8496 126.329 35.5401 126.166 35.2348 125.998C35.2264 125.994 35.2222 125.994 35.2181 125.986C34.9085 125.823 34.599 125.651 34.2895 125.48C33.5115 125.045 32.7419 124.593 31.9849 124.129C30.638 123.3 29.3205 122.426 28.0406 121.51C27.8817 121.397 27.7227 121.284 27.5638 121.167C26.5558 120.431 25.5687 119.67 24.6025 118.879C24.2888 118.62 23.9751 118.356 23.6614 118.093C21.8084 116.524 20.0434 114.851 18.3703 113.086C18.1779 112.889 17.9938 112.693 17.8098 112.492C17.7554 112.434 17.7011 112.375 17.6467 112.312C16.7558 111.346 15.8941 110.35 15.0618 109.33C14.2671 108.359 13.5058 107.368 12.7697 106.356C12.0168 105.323 11.2932 104.265 10.5989 103.185C4.68043 93.9874 0.941127 83.2042 0.154787 71.5174C-0.485161 62.0559 0.874205 52.9207 3.86899 44.5259C4.99413 41.3678 6.35349 38.3144 7.92618 35.3864C18.4665 15.7273 38.5893 1.76932 62.4848 0.154763C85.8032 -1.41797 107.143 9.13522 120.323 26.4311C121.168 27.5353 121.975 28.6647 122.749 29.8233C129.039 39.2388 133.025 50.3776 133.845 62.4868C134.975 79.2221 129.859 94.9369 120.49 107.347Z" fill="url(#paint0_linear_9970_4951)"/>
<path d="M119.423 108.723C118.336 110.095 117.19 111.417 115.998 112.697C115.81 112.902 115.617 113.107 115.421 113.312C113.651 115.165 111.773 116.913 109.799 118.553C109.147 119.097 108.486 119.624 107.812 120.142C107.532 120.36 107.248 120.573 106.967 120.782C106.712 120.971 106.461 121.159 106.206 121.343C105.621 121.765 105.027 122.179 104.424 122.585C103.529 123.188 102.622 123.773 101.693 124.334C101.668 124.35 101.643 124.363 101.618 124.38C99.8486 125.45 98.0249 126.442 96.1511 127.345C96.1135 127.366 96.0716 127.383 96.034 127.4L76.961 119.67C72.7993 117.984 69.5535 114.625 68.006 110.443C67.8721 110.087 67.755 109.727 67.6462 109.359C67.2447 107.983 67.0398 106.611 67.0063 105.26C66.9896 104.649 67.0105 104.047 67.0649 103.449C67.3493 100.354 68.5372 97.4549 70.3984 95.0749C72.3768 92.5443 75.1123 90.5993 78.3288 89.6331C79.2615 89.3529 80.2361 89.1521 81.2441 89.0475C81.6498 89.0057 82.0597 88.9764 82.478 88.9639L83.6617 88.9304H83.6658L85.5313 88.876C87.6017 88.8175 89.6471 89.1563 91.5627 89.8715C91.9684 90.0179 92.3658 90.1853 92.7548 90.3693C93.5829 90.7541 94.3776 91.2142 95.1347 91.7454L119.423 108.723V108.723Z" fill="#004AA0"/>
<path d="M85.9789 86.0945L78.6467 95.0749H44.4534L40.6597 85.8853L84.4522 85.7891L85.9789 86.0945Z" fill="#002B59"/>
<path d="M45.8671 45.9982C45.7082 40.8743 44.6123 35.7838 42.2993 31.2078C41.1533 28.9407 39.8106 26.7866 38.3718 24.6952C36.4603 21.9178 38.8444 18.1701 42.1446 18.8728C51.5723 20.8931 60.5065 25.8873 65.969 33.7342C65.1952 34.2613 64.2374 34.4118 63.313 34.5582C58.7916 35.2944 45.8169 45.262 45.8755 46.0735V45.9982H45.8671Z" fill="url(#paint1_linear_9970_4951)"/>
<path d="M41.6133 21.8551C47.2432 23.7164 52.2039 27.5353 55.4496 32.4961C55.5249 32.6133 55.6044 32.7471 55.5793 32.881C55.5416 33.0943 55.2865 33.1821 55.0773 33.2281C53.8393 33.5 52.5803 33.751 51.4301 34.278C50.6019 34.6586 50.0916 35.2693 49.3764 35.7754C48.4185 36.4489 48.4562 36.0682 48.2345 35.0351C47.8873 33.4038 47.398 31.8018 46.7789 30.2583C46.1557 28.7107 45.4028 27.2174 44.5287 25.7953C43.9807 24.9085 42.6297 22.1939 41.6133 21.8593V21.8551Z" fill="white"/>
<path d="M91.3661 57.6807C93.9719 53.2679 97.385 49.3319 101.618 46.4416C103.713 45.0069 105.926 43.7646 108.197 42.6227C111.209 41.1127 110.924 36.6789 107.699 35.7043C98.4641 32.9353 88.2291 33.0064 79.6672 37.252C80.0897 38.0844 80.8593 38.6783 81.5954 39.2555C85.2051 42.0789 91.7719 57.0617 91.3327 57.7477L91.3703 57.6849L91.3661 57.6807Z" fill="url(#paint2_linear_9970_4951)"/>
<path d="M106.725 38.5696C100.894 37.4904 94.7081 38.4441 89.4756 41.2298C89.3543 41.2967 89.2205 41.372 89.1745 41.5059C89.1075 41.7108 89.2832 41.9074 89.4463 42.0496C90.4 42.8862 91.3829 43.7102 92.1358 44.7266C92.6795 45.4586 92.8301 46.2408 93.2149 47.0272C93.7294 48.0771 93.88 47.7299 94.5701 46.9268C95.6618 45.6636 96.858 44.4966 98.1505 43.4425C99.4387 42.3843 100.819 41.439 102.27 40.6149C103.178 40.1005 105.667 38.373 106.721 38.5696H106.725Z" fill="white"/>
<path d="M30.019 59.3329C29.7011 59.7805 29.379 60.2532 29.0821 60.73C29.768 60.8053 30.4749 60.7091 31.1274 60.4247C32.0057 61.9095 33.0347 63.3108 34.1807 64.6367C34.6868 65.2223 35.1971 65.7828 35.7409 66.3224C36.7071 67.3765 37.7109 68.3678 38.7022 69.3256C41.1825 71.6513 44.0393 73.8723 44.9971 77.1182C45.6621 79.3309 45.3401 81.7695 44.4073 83.9278C43.6336 85.7724 42.4248 87.4288 41.1281 88.9346C40.7935 89.3529 40.5426 89.8422 40.5049 90.386C40.3543 92.5401 41.4502 95.5434 42.8138 97.2081C43.5206 98.0949 44.4492 98.7892 45.3945 99.4334C46.6785 100.32 50.146 114.333 51.6141 114.91C55.2948 116.386 77.6302 106.473 77.601 106.289C77.1325 101.83 77.2747 90.2689 79.4162 86.3538C80.3699 84.6054 81.7209 82.2797 83.3814 81.1169C84.9457 80.0294 87.9531 80.0963 89.8645 79.7282C90.0235 79.6948 90.2075 79.6655 90.3706 79.632C91.454 79.4313 92.5414 79.2305 93.6498 79.0381C93.7586 79.013 93.8339 79.0088 93.9385 78.9879C94.3902 78.9001 94.913 78.7327 95.3898 78.7286C95.8708 78.7286 97.272 79.059 97.4435 79.6613C97.2762 79.0381 97.1382 78.3981 97.0545 77.7456C97.0378 77.6159 97.0629 77.4193 97.1926 77.4026C97.2679 77.3984 97.3348 77.4403 97.3975 77.4821C97.6025 77.6619 97.8283 77.8711 98.0584 78.0551C97.8241 77.2897 97.5941 76.5242 97.3808 75.7881C97.9873 76.1729 98.5896 76.5786 99.1919 76.9843C98.7234 75.855 98.3428 74.6963 98.0709 73.4959C98.4892 73.7301 98.9786 73.8807 99.4428 73.9476C99.2295 73.2114 98.9911 72.4711 98.782 71.7098C99.4721 71.8604 100.125 72.1825 100.664 72.6217C99.9699 71.0071 98.7736 69.7648 98.0667 68.1963C96.0674 63.9005 94.775 59.4082 94.1099 54.8239C93.9385 53.7196 93.8213 52.607 93.7335 51.4735L93.6833 50.7791L93.4156 47.1066C93.2943 44.049 91.8597 41.1838 89.4421 39.3057L84.4564 35.353C84.2263 35.1689 83.9963 34.9849 83.762 34.8218C77.6135 30.1914 69.9969 28.0373 62.2924 28.6814L60.6695 28.8195L57.2439 29.0997C51.0954 29.083 47.9417 37.1516 47.9417 37.1516L47.8622 37.2562C47.3017 38.0718 46.7204 38.854 46.1181 39.632C45.2146 40.7864 44.2568 41.8781 43.2529 42.9322C39.8775 46.5545 35.9249 49.6749 31.6711 52.2891C31.3156 52.4983 31.0061 52.7241 30.6422 52.9584C31.027 53.0337 31.4034 53.1299 31.7422 53.293C31.3825 54.0082 30.8932 54.6398 30.2783 55.1627C30.7384 55.33 31.2738 55.3175 31.7297 55.1083C30.8597 55.8445 30.0064 56.6099 29.1406 57.3419C29.5714 57.5302 30.0399 57.6724 30.4833 57.71C29.7513 58.1032 29.1072 58.6428 28.5718 59.2618C29.0528 59.358 29.5296 59.358 30.019 59.3288V59.3329Z" fill="url(#paint3_linear_9970_4951)"/>
<path d="M94.7875 87.8512L84.4522 85.7891L62.5057 108.079L94.7875 87.8512Z" fill="#004AA0"/>
<path d="M68.0227 57.6431C68.2067 59.2786 67.7927 58.442 69.0893 59.379C72.5149 61.8468 75.5306 63.6538 78.4543 66.8996C80.6125 69.2964 82.7541 71.6596 84.8914 74.048C86.6398 75.9846 88.4048 77.9506 90.3665 79.6404C91.4498 79.4396 92.5373 79.2389 93.6457 79.0464C93.7545 79.0213 93.8298 79.0172 93.9343 78.9963C94.386 78.9084 94.9089 78.7411 95.3857 78.7369C95.8667 78.7369 97.2679 79.0674 97.4394 79.6697C97.2721 79.0464 97.1341 78.4065 97.0504 77.754C97.0337 77.6243 97.0588 77.4277 97.1884 77.411C97.2637 77.4068 97.3306 77.4486 97.3934 77.4904C97.5983 77.6703 97.8242 77.8795 98.0542 78.0635C97.82 77.298 97.59 76.5326 97.3766 75.7964C97.9831 76.1812 98.5854 76.587 99.1877 76.9927C98.7193 75.8633 98.3387 74.7047 98.0668 73.5042C98.4851 73.7385 98.9744 73.8891 99.4387 73.956C99.2254 73.2198 98.987 72.4795 98.7778 71.7182C99.468 71.8688 100.12 72.1908 100.66 72.63C99.9657 71.0155 98.7695 69.7732 98.0626 68.2046C96.0633 63.9089 94.7709 59.4166 94.1058 54.8323C93.9343 53.728 94.0222 54.8615 93.9343 53.728C93.9343 53.728 85.5815 45.3039 80.9471 43.7144C79.6003 43.2668 78.1615 42.8736 76.7687 43.0953C74.2507 43.4802 72.4396 45.7138 71.2099 47.9474C70.0764 50.0011 69.219 52.1762 68.6417 54.4223C68.3992 55.3677 67.9181 56.656 68.0185 57.6389L68.0227 57.6431Z" fill="white"/>
<path d="M30.019 59.3329C29.7011 59.7805 29.3791 60.2532 29.0821 60.73C29.768 60.8053 30.4749 60.7091 31.1274 60.4247C32.0058 61.9095 33.0347 63.3108 34.1808 64.6367C34.6869 65.2223 35.1971 65.7828 35.7409 66.3224C38.8528 65.8874 41.8769 64.8208 44.8926 63.7793C47.9375 62.721 50.9532 61.6795 53.9773 60.6129C58.1014 59.174 61.6149 59.0443 65.8059 58.5298C67.3953 58.3333 66.6508 58.8728 67.5793 57.5218C68.1398 56.7062 68.3406 55.3467 68.5832 54.4014C69.1604 52.1553 69.4532 49.8338 69.449 47.4873C69.449 44.9399 68.9596 42.1166 66.9394 40.5647C65.8017 39.6905 64.3754 39.3517 62.9784 39.0924C57.4029 38.1136 50.8696 39.289 45.3401 40.594C45.3401 40.594 44.261 41.8781 43.2571 42.9322C39.8817 46.5545 35.9291 49.6749 31.6753 52.2891C31.3198 52.4983 31.0103 52.7241 30.6464 52.9584C31.0312 53.0337 31.4077 53.1299 31.7464 53.293C31.3867 54.0082 30.8974 54.6399 30.2825 55.1627C30.7426 55.33 31.278 55.3175 31.7339 55.1083C30.8639 55.8445 30.0106 56.6099 29.1448 57.3419C29.5756 57.5302 30.0441 57.6724 30.4875 57.71C29.7555 58.1032 29.1114 58.6428 28.576 59.2618C29.057 59.358 29.5338 59.358 30.0232 59.3288L30.019 59.3329Z" fill="white"/>
<path d="M29.7346 88.6125L40.6597 85.8853L62.5057 108.079L29.7346 88.6125Z" fill="#004AA0"/>
<path d="M101.693 124.334C101.668 124.35 101.643 124.363 101.618 124.38C99.8486 125.45 98.0249 126.442 96.1511 127.345C96.1134 127.366 96.0716 127.383 96.034 127.4C95.2685 127.776 94.4948 128.127 93.7126 128.466C93.6289 128.504 93.5411 128.541 93.4575 128.579C92.5833 128.956 91.6966 129.311 90.8015 129.65C89.5425 130.131 88.2626 130.574 86.9701 130.976C86.9116 130.993 86.853 131.009 86.7987 131.03C85.9119 131.302 85.021 131.557 84.1176 131.796C83.9126 131.85 83.7118 131.9 83.5069 131.95C83.44 131.967 83.3689 131.984 83.3019 132.001C82.5114 132.197 81.7167 132.381 80.9136 132.549C79.9056 132.762 78.8892 132.954 77.8645 133.117C75.9405 133.435 73.983 133.67 71.9962 133.812C71.9042 133.824 71.808 133.829 71.716 133.833C71.6825 133.837 71.649 133.841 71.6156 133.841C71.5821 133.845 71.5487 133.845 71.5152 133.849H71.4985C71.4232 133.858 71.3437 133.862 71.2684 133.866C70.7958 133.895 70.3231 133.925 69.8589 133.937C69.6957 133.95 69.5368 133.954 69.3737 133.958C68.0896 134.004 66.8139 134.013 65.5465 133.987C65.2161 133.983 64.8857 133.975 64.5552 133.962C64.3419 133.954 64.1286 133.946 63.9153 133.933C63.656 133.921 63.4008 133.908 63.1457 133.895C62.8362 133.879 62.5308 133.858 62.2213 133.837C61.916 133.816 61.6065 133.791 61.3011 133.762C61.0293 133.741 60.7532 133.716 60.4813 133.69C60.2262 133.665 59.9669 133.64 59.7117 133.611C59.6155 133.603 59.5151 133.59 59.4189 133.578C58.6661 133.498 57.9174 133.402 57.1687 133.289C56.696 133.222 56.2276 133.147 55.7591 133.067C55.5332 133.03 55.3116 132.992 55.0857 132.95C54.5754 132.858 54.0651 132.762 53.559 132.653C53.2579 132.595 52.9567 132.532 52.6556 132.461H52.6514C51.5597 132.222 50.4764 131.959 49.4056 131.666C45.9466 130.725 42.5963 129.516 39.3714 128.052C38.8193 127.801 38.2756 127.542 37.7318 127.278C37.3972 127.119 37.0668 126.952 36.7363 126.785C36.5439 126.688 36.3515 126.588 36.1591 126.488C35.8496 126.329 35.5401 126.166 35.2348 125.998C35.2264 125.994 35.2222 125.994 35.218 125.986C34.9085 125.823 34.599 125.651 34.2895 125.48C33.5115 125.045 32.7419 124.593 31.9848 124.129C30.638 123.3 29.3205 122.426 28.0406 121.51C27.8816 121.397 27.7227 121.284 27.5638 121.167C26.5557 120.431 25.5686 119.67 24.6024 118.879C24.2887 118.62 23.975 118.356 23.6613 118.093C21.8084 116.524 20.0433 114.851 18.3703 113.086C18.1779 112.889 17.9938 112.693 17.8098 112.492C17.7554 112.434 17.701 112.375 17.6467 112.312L15.6599 99.63L15.6055 99.2828L32.9218 90.5073L33.0723 90.432L41.8141 95.6731L61.2426 107.322L62.5057 108.079L63.6141 107.385L67.0063 105.26L77.4086 98.7432L91.5627 89.8715L92.3407 89.3863C92.4787 89.7126 92.6209 90.0388 92.7548 90.3693C97.3055 101.232 100.309 112.668 101.693 124.334V124.334Z" fill="#002B59"/>
<path d="M77.7264 47.8093C78.9561 47.2865 80.2737 46.9059 81.608 46.9561C83.6198 47.0355 85.4727 48.0854 87.0371 49.3528C89.3961 51.2643 91.2992 53.7364 92.5456 56.5054C93.3069 58.1952 93.8213 60.1402 93.1939 61.8845C92.5665 63.6287 90.8684 64.8291 89.0656 65.2558C87.2629 65.6824 85.3682 65.4398 83.5654 65.009C80.5707 64.2937 77.7264 63.0598 75.0203 61.6084C73.4308 60.7551 70.0513 59.4459 69.2942 57.5971C67.7299 53.7824 74.9324 48.9973 77.7306 47.8093H77.7264Z" fill="#FFAA01"/>
<path d="M63.1666 44.0741C62.3427 43.0242 61.3723 42.058 60.176 41.4599C58.3733 40.5606 56.2443 40.5898 54.2617 40.9454C51.2753 41.485 48.4186 42.7356 45.9926 44.5593C44.512 45.6719 43.1233 47.1317 42.8347 48.9596C42.5461 50.7917 43.4579 52.6614 44.8298 53.9037C46.2018 55.146 47.9836 55.8487 49.7696 56.3381C52.7393 57.1537 55.8219 57.4423 58.8961 57.4758C60.6989 57.4925 64.2918 57.9735 65.8477 56.7187C69.0558 54.1296 65.0488 46.4667 63.1666 44.0741V44.0741Z" fill="#FFAA01"/>
<path d="M63.9487 111.999L65.5465 133.987C65.2161 133.983 64.8857 133.975 64.5552 133.962C64.3419 133.954 64.1286 133.946 63.9153 133.933C63.656 133.921 63.4008 133.908 63.1457 133.895L61.6357 112.823L61.2426 107.331V107.322L61.2342 107.209L62.5057 108.079L63.6141 107.372V107.385L63.9487 111.999V111.999Z" fill="#004AA0"/>
<path d="M39.7646 117.323L39.3714 128.052C38.8193 127.801 38.2756 127.542 37.7318 127.278C37.3972 127.119 37.0668 126.952 36.7363 126.785C36.5439 126.688 36.3515 126.588 36.1591 126.488C35.8496 126.329 35.5401 126.166 35.2348 125.998C35.2264 125.994 35.2222 125.994 35.218 125.986C34.9085 125.823 34.599 125.651 34.2895 125.48C33.5115 125.045 32.7419 124.593 31.9848 124.129C30.638 123.3 29.3205 122.426 28.0406 121.51C27.8816 121.397 27.7227 121.284 27.5638 121.167C26.5557 120.431 25.5686 119.67 24.6024 118.879C24.2887 118.62 23.975 118.356 23.6613 118.093C21.8084 116.524 20.0433 114.851 18.3703 113.086C18.1779 112.889 17.9938 112.693 17.8098 112.492C17.7554 112.434 17.701 112.375 17.6467 112.312C16.7558 111.346 15.8941 110.35 15.0618 109.33C14.2671 108.359 13.5058 107.368 12.7697 106.356C12.0168 105.323 11.2932 104.265 10.5989 103.185C12.0879 101.625 13.8112 100.441 15.6599 99.63C22.3856 96.6644 30.7133 98.6136 35.2348 105.185L36.9664 107.699C38.9071 110.522 39.8901 113.897 39.7646 117.323V117.323Z" fill="#004AA0"/>
<path d="M74.4096 65.9961C75.1541 69.2796 74.5518 73.0107 71.6658 74.9473C70.2311 75.9094 68.3949 76.3235 66.5671 76.5368C64.48 76.7794 62.3008 76.7836 60.2388 76.2063C58.1725 75.6291 56.2276 74.4161 55.1986 72.7137C53.7891 70.3755 54.3161 67.6107 55.2405 65.2307C56.2945 62.5161 57.9006 59.8851 60.5357 58.258C67.5919 53.8995 73.0084 59.8349 74.4054 65.992L74.4096 65.9961Z" fill="white"/>
<path d="M73.2468 41.2507C73.3054 40.6902 73.3305 40.0963 73.0795 39.5902C72.8285 39.084 72.2095 38.716 71.6909 38.9335C71.2433 39.1175 71.0384 39.632 70.892 40.0963C70.0303 42.8527 69.5954 45.718 69.1604 48.5664C68.7128 51.4944 68.077 54.3178 67.3869 57.1872C68.1272 57.6807 68.855 54.6608 69.0809 54.0877C69.6372 52.6907 70.2311 51.3062 70.7916 49.9133C71.9125 47.1276 72.9331 44.2623 73.2426 41.2549L73.2468 41.2507Z" fill="#FFAA01"/>
<path d="M62.9909 55.3593C62.6019 55.6939 62.489 56.246 62.4639 56.7605C62.3802 58.5215 63.0495 60.2197 63.7061 61.8552C64.024 62.6457 64.505 63.5617 65.3541 63.6119C65.7849 63.637 66.1865 63.4195 66.5629 63.2062C68.1021 62.3404 73.7989 59.6006 71.603 57.5009C70.6996 56.6392 63.748 54.7068 62.9867 55.3551L62.9909 55.3593Z" fill="#1D2939"/>
<path d="M61.0586 45.7514C60.657 45.1073 60.1091 44.4924 59.3772 44.2958C58.6034 44.0909 57.7585 44.4004 57.1729 44.9483C56.6668 45.421 56.3531 46.0609 56.1189 46.7176C56.2443 46.7888 56.3824 46.8557 56.4953 46.9268C57.0767 47.2823 57.5912 47.6755 57.8296 48.1022C58.068 48.5246 57.9801 48.9764 57.4657 49.2273C57.0056 49.449 56.2903 49.4699 55.5918 49.4323C55.4873 51.9378 56.3364 54.6106 58.9714 55.1878C59.1638 55.2296 59.3646 55.2589 59.5528 55.2129C59.8205 55.1502 60.0296 54.9494 60.2137 54.7486C62.4012 52.3686 62.7651 48.5037 61.0586 45.7598V45.7514Z" fill="#1D2939"/>
<path d="M83.4316 50.9799C83.3605 50.2228 83.1472 49.4281 82.5784 48.9261C81.9802 48.3949 81.081 48.2987 80.3156 48.5246C79.6505 48.7212 79.0859 49.152 78.5839 49.6372C78.6634 49.7543 78.7596 49.8798 78.8307 49.9928C79.1904 50.57 79.479 51.1556 79.4999 51.6408C79.525 52.126 79.2448 52.4941 78.6718 52.4857C78.1615 52.4773 77.5132 52.1804 76.9025 51.8332C75.6895 54.0292 75.2587 56.7982 77.3584 58.4922C77.5132 58.6135 77.6763 58.7306 77.8687 58.7724C78.1364 58.8352 78.4124 58.7515 78.6676 58.6511C81.6875 57.4967 83.737 54.2006 83.4358 50.9841L83.4316 50.9799Z" fill="#1D2939"/>
<path d="M56.4869 65.2851C56.8466 65.4691 57.1896 65.6531 57.5535 65.7786C57.9048 65.925 58.2729 66.0129 58.6326 66.0798C59.352 66.1969 60.0589 66.1676 60.724 65.9794C61.389 65.8205 62.0206 65.5109 62.602 65.1261C62.8906 64.9337 63.1792 64.7329 63.4469 64.5071C63.5807 64.3941 63.7104 64.2812 63.8359 64.1599C63.953 64.047 64.0952 63.9047 64.1579 63.8211L64.8188 62.9678L66.0736 64.0846C66.174 64.1766 66.3204 64.3272 66.4375 64.4527L66.8181 64.8459C67.0732 65.1052 67.3242 65.3645 67.5793 65.603C68.0855 66.0882 68.5874 66.5399 69.1018 66.9038C69.6205 67.2593 70.1266 67.5898 70.754 67.778C71.3814 67.9955 72.1343 68.0499 73.0586 68.0373L73.1423 68.1837C72.4312 68.602 71.6156 68.9157 70.7665 68.9157C69.9175 68.9366 69.0809 68.6857 68.3448 68.2883C67.6044 67.8909 66.9478 67.3514 66.3831 66.7449C65.8143 66.1342 65.3165 65.4733 64.8941 64.7497L65.1158 64.7789C64.5218 65.3394 63.8568 65.7954 63.1415 66.1634C62.4263 66.5315 61.6525 66.7992 60.8453 66.8954C60.0422 66.9958 59.214 66.908 58.4486 66.6445C57.6832 66.3768 56.993 65.9418 56.3865 65.4189L56.4953 65.2934L56.4869 65.2851Z" fill="#1D2939"/>
</g>
<defs>
<linearGradient id="paint0_linear_9970_4951" x1="38.6771" y1="6.26583" x2="95.3259" y2="127.741" gradientUnits="userSpaceOnUse">
<stop stop-color="#038C8C"/>
<stop offset="1" stop-color="#5BDCC6"/>
</linearGradient>
<linearGradient id="paint1_linear_9970_4951" x1="37.69" y1="32.4292" x2="65.9648" y2="32.4292" gradientUnits="userSpaceOnUse">
<stop stop-color="#FEDF89"/>
<stop offset="1" stop-color="#F79009"/>
</linearGradient>
<linearGradient id="paint2_linear_9970_4951" x1="79.6631" y1="45.7765" x2="110.297" y2="45.7765" gradientUnits="userSpaceOnUse">
<stop stop-color="#FEDF89"/>
<stop offset="1" stop-color="#F79009"/>
</linearGradient>
<linearGradient id="paint3_linear_9970_4951" x1="28.5718" y1="71.8186" x2="100.66" y2="71.8186" gradientUnits="userSpaceOnUse">
<stop stop-color="#FEDF89"/>
<stop offset="1" stop-color="#F79009"/>
</linearGradient>
<clipPath id="clip0_9970_4951">
<rect width="134" height="134" fill="white"/>
</clipPath>
</defs>
</svg>
